<?xml version="1.0" encoding="UTF-8"?><svg id="Ebene_1" xmlns="http://www.w3.org/2000/svg" xmlns:xlink="http://www.w3.org/1999/xlink" viewBox="0 0 137.76 79.68"><defs><style>.cls-1,.cls-2,.cls-3{fill:none;}.cls-2{stroke:#c6a76e;}.cls-2,.cls-3{stroke-miterlimit:10;stroke-width:2.5px;}.cls-4{clip-path:url(#clippath);}.cls-3{stroke:#2e2d2c;}</style><clipPath id="clippath"><rect class="cls-1" width="137.76" height="79.68"/></clipPath></defs><g class="cls-4"><path class="cls-2" d="M.9,24.82c6.17,6.35,19-1.83,25.61,4.51,6.61,6.34-1.7,18.78,4.82,24.38,6.52,5.6,14.41-2.04,21.22,1.71,6.8,3.75,2.52,14.19,9.46,16.19,6.95,1.99,8.61-6.62,13.46-6.26,4.84.36,6.05,8.37,12.41,7.17,6.36-1.21.74-11.24,6.54-14.34,5.79-3.1,11.69,4.18,15.16-.62,3.95-5.46-7.19-11.16-3.16-17.54s16.07,1.36,20.27-5.01c4.2-6.37-9.74-17.82-9.74-17.82"/><path class="cls-3" d="M9.39,66.74s17.25,9.79,22.36,1.24c5.11-8.54-7.03-18.6-2.22-24.97,4.81-6.37,15.23.61,19.27-6.38,4.03-6.99-8.05-16.25-3.46-22.21,4.18-5.43,9.49,1.21,16.36-.74,7.9-2.25,11.61-10.45,17.16-6.2,6.99,5.35-5.58,15.24-3.22,20.96,2.36,5.72,11.83,2.74,13.31,10.12,1.48,7.39-9.42,12.22-6.09,17.64,3.09,5.05,10.53-1.19,16.45,1.83,6.52,3.33,3.38,13.01,10.71,12.98,7.33-.03,5.09-12.13,11.14-15.68,6.06-3.56,15.61,8.4,15.61,8.4M12.78,14.27c5.32,5.42-2.83,20.74,3.16,25.6,5.99,4.85,17.87-2.74,24.22,2.84,6.35,5.58-.68,18.07,5.96,22.25,6.64,4.18,12.15-4.91,18.33-3.09,6.18,1.82,4.11,11.43,10.32,12.14,6.21.71,6.15-10.21,10.19-11.01,4.04-.81,10.21,6.59,14.26,4.4,4.05-2.19-.88-12.21,1.53-16.38,2.41-4.17,13.86,2.53,17.27-3.07,3.41-5.61-8.95-15.36-5.12-21.68,3.79-6.26,20.52-.17,20.52-.17"/><path class="cls-2" d="M23.16,78.95s-11.51-15.96-5.08-22.87c6.43-6.91,17.36,4.62,23.73-3.1,6.38-7.73-9.6-16.86-4.82-24.99s14.82.81,19.14-5.76c4.31-6.57-5.87-10.79-1.32-18.01,3.1-4.92,9.87-2.92,12.25.19,2.38,3.12.78,8.9,3.99,12.4,3.3,3.61,13.63.38,15.65,6.68,2.02,6.31-10.51,11.87-8.83,18.76,1.68,6.89,11.89,2.33,15.29,7.61,3.4,5.27-5.26,12.73,1.13,17.2,6.39,4.47,8.17-6,14.42-7.18,6.25-1.18,10.3,9.61,16.95,8.04,6.65-1.56,5.58-18.72,5.58-18.72"/></g></svg>